<?xml version="1.0" encoding="UTF-8" standalone="no"?>
<!-- Created with Inkscape (http://www.inkscape.org/) -->

<svg
   xmlns:dc="http://purl.org/dc/elements/1.1/"
   xmlns:cc="http://creativecommons.org/ns#"
   xmlns:rdf="http://www.w3.org/1999/02/22-rdf-syntax-ns#"
   xmlns:svg="http://www.w3.org/2000/svg"
   xmlns="http://www.w3.org/2000/svg"
   xmlns:sodipodi="http://sodipodi.sourceforge.net/DTD/sodipodi-0.dtd"
   xmlns:inkscape="http://www.inkscape.org/namespaces/inkscape"
   width="354.33069"
   height="354.33069"
   id="svg2"
   version="1.1"
   inkscape:version="0.91 r"
   sodipodi:docname="bottom_plate.svg"
   inkscape:export-filename="/home/cc/daten/Projekte/fsfe/fellowship_display.png"
   inkscape:export-xdpi="260.10001"
   inkscape:export-ydpi="260.10001">
  <defs
     id="defs4" />
  <sodipodi:namedview
     id="base"
     pagecolor="#ffffff"
     bordercolor="#666666"
     borderopacity="1.0"
     inkscape:pageopacity="0.0"
     inkscape:pageshadow="2"
     inkscape:zoom="0.98994949"
     inkscape:cx="104.55692"
     inkscape:cy="155.40872"
     inkscape:document-units="mm"
     inkscape:current-layer="layer1"
     showgrid="true"
     units="mm"
     inkscape:window-width="1871"
     inkscape:window-height="1176"
     inkscape:window-x="49"
     inkscape:window-y="24"
     inkscape:window-maximized="1"
     inkscape:snap-bbox="true"
     inkscape:snap-bbox-midpoints="true"
     inkscape:object-paths="true"
     inkscape:snap-smooth-nodes="true"
     inkscape:snap-nodes="true"
     inkscape:object-nodes="true"
     inkscape:snap-global="false">
    <inkscape:grid
       type="xygrid"
       id="grid2985"
       empspacing="5"
       visible="true"
       enabled="true"
       snapvisiblegridlinesonly="true"
       units="mm"
       spacingx="1mm"
       spacingy="1mm" />
  </sodipodi:namedview>
  <metadata
     id="metadata7">
    <rdf:RDF>
      <cc:Work
         rdf:about="">
        <dc:format>image/svg+xml</dc:format>
        <dc:type
           rdf:resource="http://purl.org/dc/dcmitype/StillImage" />
        <dc:title></dc:title>
        <cc:license
           rdf:resource="http://www.gnu.org/licenses/gpl-3.0.txt" />
      </cc:Work>
    </rdf:RDF>
  </metadata>
  <g
     inkscape:label="Ebene 1"
     inkscape:groupmode="layer"
     id="layer1"
     transform="translate(0,-698.03148)">
    <rect
       style="fill:none;fill-opacity:1;fill-rule:nonzero;stroke:#000000;stroke-width:0.07086614;stroke-linecap:square;stroke-linejoin:round;stroke-miterlimit:4;stroke-opacity:1;stroke-dasharray:none"
       id="rect3858"
       width="354.33072"
       height="354.33072"
       x="0"
       y="-2.0184854e-05"
       transform="translate(0,698.03149)" />
    <path
       sodipodi:type="arc"
       style="fill:#ffffff;fill-opacity:1;fill-rule:nonzero;stroke:#000000;stroke-width:0.07086614;stroke-linecap:square;stroke-linejoin:round;stroke-miterlimit:4;stroke-opacity:1;stroke-dasharray:none"
       id="path3818"
       sodipodi:cx="5.3149605"
       sodipodi:cy="5.3149405"
       sodipodi:rx="5.3149605"
       sodipodi:ry="5.3149605"
       d="M 10.629921,5.3149405 A 5.3149605,5.3149605 0 0 1 5.3149605,10.629901 5.3149605,5.3149605 0 0 1 0,5.3149405 5.3149605,5.3149605 0 0 1 5.3149605,-2.0027161e-5 5.3149605,5.3149605 0 0 1 10.629921,5.3149405 Z"
       transform="translate(8.8582679,706.88976)" />
    <path
       transform="translate(334.84252,706.88976)"
       d="M 10.629921,5.3149405 A 5.3149605,5.3149605 0 0 1 5.3149605,10.629901 5.3149605,5.3149605 0 0 1 0,5.3149405 5.3149605,5.3149605 0 0 1 5.3149605,-2.0027161e-5 5.3149605,5.3149605 0 0 1 10.629921,5.3149405 Z"
       sodipodi:ry="5.3149605"
       sodipodi:rx="5.3149605"
       sodipodi:cy="5.3149405"
       sodipodi:cx="5.3149605"
       id="path3820"
       style="fill:#ffffff;fill-opacity:1;fill-rule:nonzero;stroke:#000000;stroke-width:0.07086614;stroke-linecap:square;stroke-linejoin:round;stroke-miterlimit:4;stroke-opacity:1;stroke-dasharray:none"
       sodipodi:type="arc" />
    <path
       transform="translate(8.8582679,1032.874)"
       d="M 10.629921,5.3149405 A 5.3149605,5.3149605 0 0 1 5.3149605,10.629901 5.3149605,5.3149605 0 0 1 0,5.3149405 5.3149605,5.3149605 0 0 1 5.3149605,-2.0027161e-5 5.3149605,5.3149605 0 0 1 10.629921,5.3149405 Z"
       sodipodi:ry="5.3149605"
       sodipodi:rx="5.3149605"
       sodipodi:cy="5.3149405"
       sodipodi:cx="5.3149605"
       id="path3822"
       style="fill:#ffffff;fill-opacity:1;fill-rule:nonzero;stroke:#000000;stroke-width:0.07086614;stroke-linecap:square;stroke-linejoin:round;stroke-miterlimit:4;stroke-opacity:1;stroke-dasharray:none"
       sodipodi:type="arc" />
    <path
       sodipodi:type="arc"
       style="fill:#ffffff;fill-opacity:1;fill-rule:nonzero;stroke:#000000;stroke-width:0.07086614;stroke-linecap:square;stroke-linejoin:round;stroke-miterlimit:4;stroke-opacity:1;stroke-dasharray:none"
       id="path3824"
       sodipodi:cx="5.3149605"
       sodipodi:cy="5.3149405"
       sodipodi:rx="5.3149605"
       sodipodi:ry="5.3149605"
       d="M 10.629921,5.3149405 A 5.3149605,5.3149605 0 0 1 5.3149605,10.629901 5.3149605,5.3149605 0 0 1 0,5.3149405 5.3149605,5.3149605 0 0 1 5.3149605,-2.0027161e-5 5.3149605,5.3149605 0 0 1 10.629921,5.3149405 Z"
       transform="translate(334.84252,1032.874)" />
    <path
       transform="translate(86.62261,777.86837)"
       d="M 10.629921,5.3149405 A 5.3149605,5.3149605 0 0 1 5.3149605,10.629901 5.3149605,5.3149605 0 0 1 0,5.3149405 5.3149605,5.3149605 0 0 1 5.3149605,-2.0027161e-5 5.3149605,5.3149605 0 0 1 10.629921,5.3149405 Z"
       sodipodi:ry="5.3149605"
       sodipodi:rx="5.3149605"
       sodipodi:cy="5.3149405"
       sodipodi:cx="5.3149605"
       id="path3008"
       style="fill:#ffffff;fill-opacity:1;fill-rule:nonzero;stroke:#000000;stroke-width:0.07086614;stroke-linecap:square;stroke-linejoin:round;stroke-miterlimit:4;stroke-opacity:1;stroke-dasharray:none"
       sodipodi:type="arc" />
    <path
       transform="translate(203.55175,962.12034)"
       d="M 10.629921,5.3149405 A 5.3149605,5.3149605 0 0 1 5.3149605,10.629901 5.3149605,5.3149605 0 0 1 0,5.3149405 5.3149605,5.3149605 0 0 1 5.3149605,-2.0027161e-5 5.3149605,5.3149605 0 0 1 10.629921,5.3149405 Z"
       sodipodi:ry="5.3149605"
       sodipodi:rx="5.3149605"
       sodipodi:cy="5.3149405"
       sodipodi:cx="5.3149605"
       id="path3024"
       style="fill:#ffffff;fill-opacity:1;fill-rule:nonzero;stroke:#000000;stroke-width:0.07086614;stroke-linecap:square;stroke-linejoin:round;stroke-miterlimit:4;stroke-opacity:1;stroke-dasharray:none"
       sodipodi:type="arc" />
    <rect
       style="fill:none;stroke:#000000;stroke-width:0.07086614;stroke-linejoin:round;stroke-miterlimit:4;stroke-opacity:1;stroke-dasharray:none"
       id="rect3807"
       width="24.587597"
       height="177.42567"
       x="57.135841"
       y="788.99945" />
    <rect
       y="788.99945"
       x="272.80341"
       height="177.42567"
       width="24.587597"
       id="rect3809"
       style="fill:none;stroke:#000000;stroke-width:0.07086614;stroke-linejoin:round;stroke-miterlimit:4;stroke-opacity:1;stroke-dasharray:none" />
  </g>
</svg>
