<?xml version="1.0" encoding="UTF-8" standalone="no"?>
<!-- Created with Inkscape (http://www.inkscape.org/) -->

<svg
   xmlns:dc="http://purl.org/dc/elements/1.1/"
   xmlns:cc="http://creativecommons.org/ns#"
   xmlns:rdf="http://www.w3.org/1999/02/22-rdf-syntax-ns#"
   xmlns:svg="http://www.w3.org/2000/svg"
   xmlns="http://www.w3.org/2000/svg"
   xmlns:sodipodi="http://sodipodi.sourceforge.net/DTD/sodipodi-0.dtd"
   xmlns:inkscape="http://www.inkscape.org/namespaces/inkscape"
   width="212.59842"
   height="88.582672"
   id="svg2"
   version="1.1"
   inkscape:version="0.91 r"
   sodipodi:docname="fixture.svg">
  <defs
     id="defs4" />
  <sodipodi:namedview
     id="base"
     pagecolor="#ffffff"
     bordercolor="#666666"
     borderopacity="1.0"
     inkscape:pageopacity="0.0"
     inkscape:pageshadow="2"
     inkscape:zoom="3.959798"
     inkscape:cx="80.142698"
     inkscape:cy="46.048364"
     inkscape:document-units="mm"
     inkscape:current-layer="layer1"
     showgrid="true"
     units="mm"
     inkscape:window-width="1871"
     inkscape:window-height="1176"
     inkscape:window-x="49"
     inkscape:window-y="24"
     inkscape:window-maximized="1"
     inkscape:snap-bbox="true"
     inkscape:object-nodes="true"
     inkscape:snap-global="true"
     inkscape:snap-bbox-midpoints="true">
    <inkscape:grid
       type="xygrid"
       id="grid2985"
       empspacing="5"
       visible="true"
       enabled="true"
       snapvisiblegridlinesonly="true"
       spacingx="1mm"
       spacingy="1mm"
       units="mm" />
  </sodipodi:namedview>
  <metadata
     id="metadata7">
    <rdf:RDF>
      <cc:Work
         rdf:about="">
        <dc:format>image/svg+xml</dc:format>
        <dc:type
           rdf:resource="http://purl.org/dc/dcmitype/StillImage" />
        <dc:title></dc:title>
        <cc:license
           rdf:resource="http://www.gnu.org/licenses/gpl-3.0.txt" />
      </cc:Work>
    </rdf:RDF>
  </metadata>
  <g
     inkscape:label="Ebene 1"
     inkscape:groupmode="layer"
     id="layer1"
     transform="translate(0,-963.7795)">
    <path
       id="path3788"
       style="fill:none;stroke:#000000;stroke-width:0.07086614;stroke-linecap:butt;stroke-linejoin:miter;stroke-miterlimit:4;stroke-opacity:1;stroke-dasharray:none"
       d="m 212.59843,1052.3622 -194.881895,0 C 7.0866142,1052.3622 1.9685043e-7,1045.2756 1.9685043e-7,1034.6457 l 0,-35.43312 C 1.9685043e-7,985.03938 10.629921,985.03938 17.023847,986.40158 l -4.905523,17.02392 17.023851,4.9054 4.905523,-17.02382 85.119262,24.52762 -4.90554,17.0239 17.02387,4.9055 4.90552,-17.0239 c 33.88793,10.3622 54.87592,13.7328 76.40762,13.9055 z"
       inkscape:connector-curvature="0"
       sodipodi:nodetypes="cccccccccccccc" />
    <path
       sodipodi:type="arc"
       style="fill:#ffffff;fill-opacity:1;stroke:#000000;stroke-width:0.07086614;stroke-linejoin:round;stroke-miterlimit:4;stroke-opacity:1;stroke-dasharray:none"
       id="path3791"
       sodipodi:cx="164.76378"
       sodipodi:cy="306.49603"
       sodipodi:rx="5.3149605"
       sodipodi:ry="5.3149605"
       d="m 170.07874,306.49603 a 5.3149605,5.3149605 0 0 1 -5.31496,5.31496 5.3149605,5.3149605 0 0 1 -5.31496,-5.31496 5.3149605,5.3149605 0 0 1 5.31496,-5.31496 5.3149605,5.3149605 0 0 1 5.31496,5.31496 z"
       transform="translate(-15.944881,731.69293)" />
    <path
       transform="translate(-129.3307,731.69293)"
       d="m 170.07874,306.49603 a 5.3149605,5.3149605 0 0 1 -5.31496,5.31496 5.3149605,5.3149605 0 0 1 -5.31496,-5.31496 5.3149605,5.3149605 0 0 1 5.31496,-5.31496 5.3149605,5.3149605 0 0 1 5.31496,5.31496 z"
       sodipodi:ry="5.3149605"
       sodipodi:rx="5.3149605"
       sodipodi:cy="306.49603"
       sodipodi:cx="164.76378"
       id="path3793"
       style="fill:#ffffff;fill-opacity:1;stroke:#000000;stroke-width:0.07086614;stroke-linejoin:round;stroke-miterlimit:4;stroke-opacity:1;stroke-dasharray:none"
       sodipodi:type="arc" />
    <g
       id="g3801"
       transform="matrix(-1,0,0,-1,212.95276,1934.2913)"
       style="stroke-width:0.07086614;stroke-miterlimit:4;stroke-dasharray:none">
      <path
         id="path3795"
         style="fill:none;stroke:#000000;stroke-width:0.07086614;stroke-linecap:butt;stroke-linejoin:miter;stroke-miterlimit:4;stroke-opacity:1;stroke-dasharray:none"
         d="m 212.95276,970.51178 -194.881894,0 c -10.6299213,0 -17.71653528,-7.0866 -17.71653528,-17.7165 l 0,-35.43312 c 0,-14.1732 10.62992128,-14.1732 17.02384728,-12.811 l -4.905523,17.02392 17.023851,4.9054 4.905523,-17.02382 85.119261,24.52762 -4.90554,17.0239 17.02387,4.9055 4.90552,-17.0239 c 33.88793,10.3622 54.87592,13.7328 76.40762,13.9055 z"
         inkscape:connector-curvature="0"
         sodipodi:nodetypes="cccccccccccccc" />
      <path
         sodipodi:type="arc"
         style="fill:#ffffff;fill-opacity:1;stroke:#000000;stroke-width:0.07086614;stroke-linejoin:round;stroke-miterlimit:4;stroke-opacity:1;stroke-dasharray:none"
         id="path3797"
         sodipodi:cx="164.76378"
         sodipodi:cy="306.49603"
         sodipodi:rx="5.3149605"
         sodipodi:ry="5.3149605"
         d="m 170.07874,306.49603 a 5.3149605,5.3149605 0 0 1 -5.31496,5.31496 5.3149605,5.3149605 0 0 1 -5.31496,-5.31496 5.3149605,5.3149605 0 0 1 5.31496,-5.31496 5.3149605,5.3149605 0 0 1 5.31496,5.31496 z"
         transform="translate(-15.59055,649.84251)" />
      <path
         transform="translate(-128.97637,649.84251)"
         d="m 170.07874,306.49603 a 5.3149605,5.3149605 0 0 1 -5.31496,5.31496 5.3149605,5.3149605 0 0 1 -5.31496,-5.31496 5.3149605,5.3149605 0 0 1 5.31496,-5.31496 5.3149605,5.3149605 0 0 1 5.31496,5.31496 z"
         sodipodi:ry="5.3149605"
         sodipodi:rx="5.3149605"
         sodipodi:cy="306.49603"
         sodipodi:cx="164.76378"
         id="path3799"
         style="fill:#ffffff;fill-opacity:1;stroke:#000000;stroke-width:0.07086614;stroke-linejoin:round;stroke-miterlimit:4;stroke-opacity:1;stroke-dasharray:none"
         sodipodi:type="arc" />
    </g>
  </g>
</svg>
